<svg width="2255" height="449" xmlns="http://www.w3.org/2000/svg" xmlns:xlink="http://www.w3.org/1999/xlink" xml:space="preserve" overflow="hidden"><defs><clipPath id="clip0"><rect x="1127" y="948" width="2255" height="449"/></clipPath></defs><g clip-path="url(#clip0)" transform="translate(-1127 -948)"><rect x="1294" y="1276" width="256" height="98" fill="#7F7F7F" fill-opacity="0.72549"/><rect x="1274" y="1297" width="256" height="98" fill="#7F7F7F" fill-opacity="1"/><path d="M1159 1009C1159 976.968 1184.97 951 1217 951L1641 951C1673.03 951 1699 976.968 1699 1009L1699 1241C1699 1273.03 1673.03 1299 1641 1299L1217 1299C1184.97 1299 1159 1273.03 1159 1241Z" fill="#C00000" fill-rule="evenodd" fill-opacity="0.647059"/><path d="M1132 1032C1132 999.968 1157.97 974 1190 974L1614 974C1646.03 974 1672 999.968 1672 1032L1672 1264C1672 1296.03 1646.03 1322 1614 1322L1190 1322C1157.97 1322 1132 1296.03 1132 1264Z" fill="#D50004" fill-rule="evenodd" fill-opacity="1"/><path d="M1214 1115C1214 1070.82 1249.82 1035 1294 1035 1338.18 1035 1374 1070.82 1374 1115 1374 1159.18 1338.18 1195 1294 1195 1249.82 1195 1214 1159.18 1214 1115Z" fill="#D0CECE" fill-rule="evenodd" fill-opacity="1"/><path d="M1429 1115C1429 1070.82 1465.04 1035 1509.5 1035 1553.96 1035 1590 1070.82 1590 1115 1590 1159.18 1553.96 1195 1509.5 1195 1465.04 1195 1429 1159.18 1429 1115Z" fill="#D0CECE" fill-rule="evenodd" fill-opacity="1"/><rect x="1294" y="1243" width="216" height="30.9999" fill="#D0CECE" fill-opacity="1"/><path d="M1245 1118C1245 1090.94 1266.94 1069 1294 1069 1321.06 1069 1343 1090.94 1343 1118 1343 1145.06 1321.06 1167 1294 1167 1266.94 1167 1245 1145.06 1245 1118Z" fill="#FFFFFF" fill-rule="evenodd" fill-opacity="0.819608"/><path d="M1460 1118C1460 1090.94 1482.16 1069 1509.5 1069 1536.84 1069 1559 1090.94 1559 1118 1559 1145.06 1536.84 1167 1509.5 1167 1482.16 1167 1460 1145.06 1460 1118Z" fill="#FFFFFF" fill-rule="evenodd" fill-opacity="0.819608"/><text fill="#7F7F7F" fill-opacity="1" font-family="Cambria,Cambria_MSFontService,sans-serif" font-style="normal" font-variant="normal" font-weight="400" font-stretch="normal" font-size="147" text-anchor="start" direction="ltr" writing-mode="lr-tb" unicode-bidi="normal" text-decoration="none" transform="matrix(1 0 0 1 1869.82 1184)">ENGLY</text><text fill="#000000" fill-opacity="1" font-family="Cambria,Cambria_MSFontService,sans-serif" font-style="normal" font-variant="normal" font-weight="700" font-stretch="normal" font-size="147" text-anchor="start" direction="ltr" writing-mode="lr-tb" unicode-bidi="normal" text-decoration="none" transform="matrix(1 0 0 1 2328.02 1184)">AUTOMATION</text></g></svg>